inDegrees=no
num_controls=7
num_derivatives=13
num_iterations=121
num_multipliers=7
num_parameters=0
num_slacks=7
num_states=26
objective=0.452950
objective_accelerations=0.049194
objective_balance=0.001076
objective_effort=0.037912
objective_height=0.359156
objective_ligament=0.005612
solver_duration=1337.145369
status=Solve_Succeeded
success=true
DataType=double
version=3
OpenSimVersion=4.5
endheader
time	/jointset/ground_pelvis/pelvis_tilt/value	/jointset/ground_pelvis/pelvis_tx/value	/jointset/ground_pelvis/pelvis_ty/value	/jointset/hip_r/hip_flexion_r/value	/jointset/hip_r/hip_adduction_r/value	/jointset/hip_r/hip_rotation_r/value	/jointset/back/lumbar_extension/value	/jointset/patellofemoral_r/patellar_flexion_r/value	/jointset/knee_r/knee_flexion_r/value	/jointset/knee_r/knee_adduction_r/value	/jointset/knee_r/knee_rotation_r/value	/jointset/ankle_r/ankle_angle_r/value	/jointset/subtalar_r/subtalar_angle_r/value	/jointset/ground_pelvis/pelvis_tilt/speed	/jointset/ground_pelvis/pelvis_tx/speed	/jointset/ground_pelvis/pelvis_ty/speed	/jointset/hip_r/hip_flexion_r/speed	/jointset/hip_r/hip_adduction_r/speed	/jointset/hip_r/hip_rotation_r/speed	/jointset/back/lumbar_extension/speed	/jointset/patellofemoral_r/patellar_flexion_r/speed	/jointset/knee_r/knee_flexion_r/speed	/jointset/knee_r/knee_adduction_r/speed	/jointset/knee_r/knee_rotation_r/speed	/jointset/ankle_r/ankle_angle_r/speed	/jointset/subtalar_r/subtalar_angle_r/speed	/forceset/tau_hip_flexion_r	/forceset/tau_hip_adduction_r	/forceset/tau_hip_rotation_r	/forceset/tau_knee_flexion_r	/forceset/tau_ankle_angle_r	/forceset/tau_subtalar_angle_r	/forceset/tau_lumbar_extension	lambda_cid13_p0	lambda_cid14_p0	lambda_cid14_p1	lambda_cid14_p2	lambda_cid14_p3	lambda_cid14_p4	lambda_cid14_p5	/jointset/ground_pelvis/pelvis_tilt/accel	/jointset/ground_pelvis/pelvis_tx/accel	/jointset/ground_pelvis/pelvis_ty/accel	/jointset/hip_r/hip_flexion_r/accel	/jointset/hip_r/hip_adduction_r/accel	/jointset/hip_r/hip_rotation_r/accel	/jointset/back/lumbar_extension/accel	/jointset/patellofemoral_r/patellar_flexion_r/accel	/jointset/knee_r/knee_flexion_r/accel	/jointset/knee_r/knee_adduction_r/accel	/jointset/knee_r/knee_rotation_r/accel	/jointset/ankle_r/ankle_angle_r/accel	/jointset/subtalar_r/subtalar_angle_r/accel	gamma_cid13_p0	gamma_cid14_p0	gamma_cid14_p1	gamma_cid14_p2	gamma_cid14_p3	gamma_cid14_p4	gamma_cid14_p5
1	-0.2191447218198403	-0.01585995270281211	0.628736616370013	1.434225332112498	-0.2392346252325154	-0.08223488948521582	-0.7853981627204492	1.531661616926264	1.531661616926317	-0.1745158077773253	0.1745304199231902	0.4362707182801409	0.173920568345281	0.06940095075976302	0.004770786532769848	0.01789911427921919	-0.1059790618099022	-0.0004927108959987401	-0.003275424093971892	-0.0001299834329621684	-0.02540248375259717	-0.0254024837525995	0.004647780339206592	-0.0003484627556708943	0.01088117309153829	0.004720199741495464	-0.3248311108984583	0.01877884101533466	0.01058504051097	-0.480153747643125	-0.004088705471337062	0.008839974804161295	0.3540178158951559	-0.04075535597918875	-52.7708458698766	-8.570529757880962	5.40914200359227	6.031598154094329	-771.6252289642482	76.47394872666791	1.20361868715947	0.1641033242420351	1.86875383722971	-5.527559064903516	0.2565402055214502	-0.7596602663226544	-0.004449186923919842	-5.129622340463117	-5.129622340463496	0.5393976206140878	-0.01651641944282786	-0.9447893304146615	0.01933341502331209	1.207205348084849e-09	2.112274653997332e-09	1.18447758569713e-08	9.535003173937031e-09	-1.980419664372185e-09	-4.335120531216996e-09	2.005205953754895e-08
1.01	-0.2183916251028368	-0.01580397217270765	0.6290088019578275	1.432890597122881	-0.2392268060047597	-0.08230257197361626	-0.7853979468573761	1.53115175353944	1.531151753539351	-0.1744392952130062	0.1745258263468119	0.4363323058053667	0.1739685153527987	0.08117104089439539	0.006435100961191514	0.03652567042673022	-0.1609089326111024	0.002047928804790217	-0.01019973677624165	0.0002760318548630407	-0.07654762017251769	-0.07654762017252098	0.01072342364241638	-0.0005614864731815859	0.001440262759440441	0.004853060891722921	-0.3245809083803582	0.01874046035163197	0.01067073388634735	-0.4802917207764451	-0.003730263758255142	0.008809199409014472	0.3540839281714499	-0.0407576334013457	-52.64989499053465	-8.569679531761714	5.416958498628563	5.827504057173328	-771.5768455183066	76.49018986776345	1.156603011479961	0.1690611657391602	1.857754532152543	-5.466849059661818	0.2515367238660502	-0.6496141131766822	0.0785582553948046	-5.103574340653134	-5.103574340653162	0.6519513148556352	-0.02236943849783295	-0.9431521095850977	0.007851941088453218	5.278144769293649e-09	9.46720215375303e-09	3.832404603776362e-08	3.907131350005108e-08	-7.728775961200973e-09	-1.015527573107805e-08	7.699250567118802e-08
1.02	-0.2175222477175145	-0.01573105536559957	0.6294668827128455	1.431008333830864	-0.2391938382056943	-0.08243765705763927	-0.78539058456753	1.530131115778838	1.530131115778606	-0.1742999654897185	0.1745193677151384	0.4362996021822781	0.1740173088670318	0.09265708442362214	0.008158041933491957	0.05507814771987009	-0.215484722289644	0.004537003365916597	-0.01675594321841341	0.00129930189305056	-0.1275573585083032	-0.1275573585083107	0.01721121213287479	-0.0007214738143978135	-0.007977056571767664	0.004889501084589802	-0.3243307058622585	0.01870207968792875	0.01075642726172636	-0.4804296939097651	-0.003371822045173444	0.00877842401386651	0.3541500404477434	-0.04076752365714324	-52.53650050601192	-8.567069056335214	5.420972120638036	5.624798747793286	-771.6486153492873	76.53527714693381	1.146809366078339	0.1758286330177921	1.853938066355477	-5.456742840371783	0.2462271775889316	-0.6860390183030598	0.1190017631484752	-5.102542723636114	-5.10254272363714	0.6218266580638133	-0.005909144183928045	-0.9400711302367099	4.922355119257741e-05	1.178330148836011e-08	1.893846905107721e-08	7.216508246323956e-08	8.515547750281089e-08	-1.247061463771446e-08	-1.826103751413064e-08	1.586049371770784e-07
1.03	-0.2165393354247052	-0.0156406342901795	0.6301101094662038	1.428582049999742	-0.2391362038363341	-0.08263667826533676	-0.7853691582101028	1.528600925521558	1.528600925521341	-0.1740939155047652	0.1745115699193843	0.4361726617229839	0.1740659577149209	0.1038860449659937	0.009934216498278896	0.07355399929348683	-0.2697153035781131	0.006985685422899862	-0.02300851276382674	0.003165199801033665	-0.1784715784262534	-0.178471578426267	0.0240440322896025	-0.0008327397810931479	-0.0174248865037178	0.004823707418889129	-0.3251121852110619	0.0188763889478368	0.01081908579966703	-0.4794745788521686	-0.004695346104713673	0.008872321165703792	0.3550964598562202	-0.04078941765174812	-52.97586820367818	-8.571182577833062	5.385034096690378	5.885612250062329	-771.9776790487148	76.48715895665136	1.105045460791495	0.1797149012657584	1.842422826827062	-5.397699562740522	0.2435777401487515	-0.5888881972611173	0.2472683358772024	-5.084498149892289	-5.084498149892584	0.7207938271830898	-0.01289762842161418	-0.9492158754080939	-0.0123455913713875	1.831329715944554e-08	2.84313312483766e-08	1.060812389524368e-07	1.314084971553325e-07	-1.720218272626555e-08	-2.639012181333827e-08	2.40469123635747e-07
1.04	-0.2154453123139771	-0.01553221086250024	0.6309376975600908	1.425615163597805	-0.2390542048423248	-0.08289702962340853	-0.785323695967343	1.526561865760294	1.526561865760091	-0.1738181804917031	0.174502827002861	0.4359508275742232	0.1741134582402049	0.1148792480073631	0.01175851238533043	0.09195041582559699	-0.3236052364528245	0.009409928295712055	-0.029021973293266	0.006106478959176018	-0.2293312593049166	-0.2293312593049317	0.03114821775456381	-0.0009104979681594594	-0.02695579446502507	0.004659836563560758	-0.325893664559858	0.0190506982077455	0.01088174433760697	-0.4785194637945718	-0.006018870164254903	0.008966218317541796	0.356042879264704	-0.04081883713867843	-53.42282870010981	-8.573198305732424	5.344846537541683	6.146316020601983	-772.4294049715177	76.4693350275742	1.099657865877913	0.1854528974707133	1.83805105805416	-5.388613157620255	0.2413393407547146	-0.6382172151082467	0.3340780131803196	-5.091634915778713	-5.091634915778825	0.6760997197105337	0.0007924117418813793	-0.9566867361081334	-0.01956621437434936	2.405346390999745e-08	3.634070269462039e-08	1.36154060156641e-07	1.727603523625838e-07	-2.032256684145219e-08	-3.360786965296186e-08	3.120938716853592e-07
1.05	-0.2142425175047239	-0.01540525157354557	0.6319488298656144	1.422111065885711	-0.2389481067245022	-0.08321628373881491	-0.7852435014518664	1.524014463449493	1.524014463449397	-0.1734699732650715	0.1744935026135144	0.435633232679604	0.1741587685215316	0.1256397025060114	0.01364661011662299	0.1102603361864946	-0.3771566773329444	0.01180500326144904	-0.03478469251974792	0.0101091275145803	-0.2801421803193656	-0.2801421803193831	0.03854436603288696	-0.00094998346487268	-0.03658045484907666	0.004382709948160172	-0.3263114347633096	0.01919142843901631	0.0110304067914204	-0.4776106233133218	-0.006853123232822862	0.009002727161089578	0.3567572257822208	-0.04085430786902205	-53.69849459152155	-8.579937420235897	5.316597304078951	6.238271542687746	-772.6434490088077	76.43185577848475	1.05824643871214	0.1924732080859117	1.825097929165411	-5.329756834424176	0.2379151617312732	-0.5386588904849285	0.4598637834802993	-5.074773325388361	-5.074773325388669	0.7790377681526749	-0.005601674820367302	-0.9679452039818147	-0.03466090773095862	2.976894850678269e-08	4.420059005489371e-08	1.661067771331892e-07	2.139590461809204e-07	-2.339260145747121e-08	-4.079713822822346e-08	3.833986372846884e-07
